<svg version="1.2" xmlns="http://www.w3.org/2000/svg" viewBox="0 0 512 512" width="64" height="64">
	<title>MusicSequencer512</title>
	<defs>
		<linearGradient id="g1" x2="1" gradientUnits="userSpaceOnUse" gradientTransform="matrix(0,-398.192,501.336,0,256,455.096)">
			<stop offset="0" stop-color="#666666"/>
			<stop offset=".499" stop-color="#ffffff"/>
			<stop offset="1" stop-color="#666666"/>
		</linearGradient>
		<linearGradient id="g2" x2="1" gradientUnits="userSpaceOnUse" gradientTransform="matrix(398.192,-398.192,337.228,337.228,56.904,455.096)">
			<stop offset="0" stop-color="#656565"/>
			<stop offset=".497" stop-color="#ffffff"/>
			<stop offset="1" stop-color="#666666"/>
		</linearGradient>
	</defs>
	<style>
		.s0 { fill: url(#g1) } 
		.s1 { fill: url(#g2) } 
		.s2 { fill: #000000 } 
	</style>
	<g id="Icon SVG">
		<g id="bg">
			<path id="Oval bg" fill-rule="evenodd" class="s0" d="m315.3 438.6c-134.6 43.7-270-2.5-302.8-103.5-32.8-101 49.5-218 184.2-261.7 134.6-43.7 270 2.5 302.8 103.5 32.8 101-49.5 218-184.2 261.7z"/>
			<path id="Oval border" fill-rule="evenodd" class="s1" d="m315.3 438.6c-134.6 43.7-270-2.5-302.8-103.5-32.8-101 49.5-218 184.2-261.7 134.6-43.7 270 2.5 302.8 103.5 32.8 101-49.5 218-184.2 261.7zm165.1-255.5c-29.3-90.5-153.4-131-277.6-90.7-124.1 40.3-200.6 146.1-171.2 236.5 29.3 90.5 153.4 131 277.6 90.7 124.1-40.3 200.6-146.1 171.2-236.5z"/>
		</g>
		<g id="ClassThumbnail">
			<path id="Notes2" class="s2" d="m325 332.3c-2.6 9.7-11 15.2-22.4 17-9.9 1.6-18.2 2-26.2-3.6-9.7-7.1-9.8-19-1-26.5 6.9-5.7 16.6-6.9 31.1-9.1 2.5-0.4 4.6-0.9 6.4-2.7 2.6-2.5 1.8-1.4 1.8-58 0-4-2.3-5.1-6.9-4.4-3.4 0.5-75.4 12.3-75.4 12.3-4.2 0.8-5.5 1.8-5.5 5.9 0 83.5 0.5 79.7-1 85.3-1.7 6.4-6.3 11.3-12.3 14-6.8 3.3-19.1 4.8-25.7 3.7-17.5-2.9-23.7-20.6-11.8-30.8 6.9-5.8 16.6-6.9 31.2-9.2 2.4-0.4 4.5-0.9 6.3-2.6 4.1-4.1 0.7-91.3 2.1-96.2 0.3-1.8 1.2-3.4 2.9-4.5 1.7-1.3 4.8-2 5.4-2 82.9-13.6 93-15.3 94.4-15.3 4.7-0.3 7.3 2.1 7.3 6.2 0.1 122.6 0.5 116-0.7 120.5z"/>
			<path id="Notes1" class="s2" d="m192.8 282.1c-2.6 9.7-11 15.2-22.4 17-9.9 1.6-18.2 2-26.2-3.6-9.7-7.1-9.8-19-1-26.5 6.9-5.7 16.6-6.9 31.1-9.1 2.5-0.4 4.6-0.9 6.4-2.7 2.6-2.5 1.8-1.4 1.8-58 0-4-2.3-5.1-6.9-4.4-3.4 0.5-75.4 12.3-75.4 12.3-4.2 0.8-5.5 1.8-5.5 5.9 0 83.5 0.5 79.7-1 85.3-1.7 6.4-6.3 11.3-12.3 14-6.8 3.3-19.1 4.8-25.7 3.7-17.5-2.9-23.7-20.6-11.8-30.8 6.9-5.8 16.6-6.9 31.2-9.2 2.4-0.4 4.5-0.9 6.3-2.6 4.1-4.1 0.7-91.3 2.1-96.2 0.3-1.8 1.2-3.4 2.9-4.5 1.7-1.3 4.8-2 5.4-2 82.9-13.6 93-15.3 94.4-15.3 4.7-0.3 7.3 2.1 7.3 6.2 0.1 122.6 0.5 116-0.7 120.5z"/>
			<path id="Triangle" class="s2" d="m373.3 194.1c-5-2.6-11.3-2.7-16.4-0.3-5.1 2.4-8.3 7-8.3 12v100.7c0 5 3.2 9.6 8.3 12 5.1 2.5 11.4 2.4 16.4-0.2l97.2-50.4c4.8-2.5 7.7-6.9 7.7-11.7 0-4.8-2.9-9.2-7.7-11.8z"/>
		</g>
	</g>
	<g id="Menu">
	</g>
	<g id="Node">
	</g>
</svg>